<?xml version="1.0" encoding="UTF-8"?>
<svg xmlns="http://www.w3.org/2000/svg" viewBox="0 0 512 512" width="512" height="512" role="img" aria-label="CAREIS sun above moon below left">
  <defs>
    <linearGradient id="sunFill" x1="0%" y1="0%" x2="0%" y2="100%">
      <stop offset="0%" stop-color="#fff2d2"/>
      <stop offset="40%" stop-color="#f0c24a"/>
      <stop offset="100%" stop-color="#b07818"/>
    </linearGradient>
    <linearGradient id="moonFill" x1="0%" y1="0%" x2="100%" y2="100%">
      <stop offset="0%" stop-color="#f5f0ea"/>
      <stop offset="55%" stop-color="#a89e94"/>
      <stop offset="100%" stop-color="#4a4038"/>
    </linearGradient>
    <mask id="moonBite" maskUnits="userSpaceOnUse">
      <rect width="512" height="512" fill="white"/>
      <ellipse cx="248" cy="392" rx="70" ry="78" fill="black" transform="rotate(28 248 392)"/>
    </mask>
  </defs>
  <circle cx="256" cy="256" r="252" fill="#f7eee4"/>
  <circle cx="256" cy="256" r="252" fill="none" stroke="#6b4828" stroke-width="12"/>
  <circle cx="256" cy="256" r="232" fill="none" stroke="#b8925a" stroke-width="5" opacity="0.85"/>
  <g transform="translate(256 118)">
    <g fill="url(#sunFill)" stroke="#3d2208" stroke-width="6" stroke-linejoin="round">
      <g transform="rotate(0)"><path d="M 0 -118 L 28 -54 L -28 -54 Z"/></g>
      <g transform="rotate(45)"><path d="M 0 -118 L 28 -54 L -28 -54 Z"/></g>
      <g transform="rotate(90)"><path d="M 0 -118 L 28 -54 L -28 -54 Z"/></g>
      <g transform="rotate(135)"><path d="M 0 -118 L 28 -54 L -28 -54 Z"/></g>
      <g transform="rotate(180)"><path d="M 0 -118 L 28 -54 L -28 -54 Z"/></g>
      <g transform="rotate(225)"><path d="M 0 -118 L 28 -54 L -28 -54 Z"/></g>
      <g transform="rotate(270)"><path d="M 0 -118 L 28 -54 L -28 -54 Z"/></g>
      <g transform="rotate(315)"><path d="M 0 -118 L 28 -54 L -28 -54 Z"/></g>
    </g>
    <circle cx="0" cy="0" r="62" fill="url(#sunFill)" stroke="#2a1804" stroke-width="7"/>
    <circle cx="0" cy="0" r="34" fill="none" stroke="#5c3a10" stroke-width="4" opacity="0.65"/>
  </g>
  <circle
    cx="168"
    cy="418"
    r="88"
    fill="url(#moonFill)"
    stroke="#241a18"
    stroke-width="7"
    mask="url(#moonBite)"
  />
</svg>
