<?xml version="1.0" encoding="UTF-8"?>
<svg xmlns="http://www.w3.org/2000/svg" viewBox="0 0 512 512" width="512" height="512" role="img" aria-label="CAREIS day and night mark">
  <defs>
    <linearGradient id="sunFill" x1="0%" y1="0%" x2="0%" y2="100%">
      <stop offset="0%" stop-color="#f6ead0"/>
      <stop offset="45%" stop-color="#e0b85a"/>
      <stop offset="100%" stop-color="#a87428"/>
    </linearGradient>
    <linearGradient id="moonFill" x1="20%" y1="0%" x2="80%" y2="100%">
      <stop offset="0%" stop-color="#f4f0eb"/>
      <stop offset="55%" stop-color="#c4bbb2"/>
      <stop offset="100%" stop-color="#7d7268"/>
    </linearGradient>
    <mask id="moonBite" maskUnits="userSpaceOnUse">
      <rect width="512" height="512" fill="white"/>
      <ellipse cx="222" cy="352" rx="40" ry="48" fill="black" transform="rotate(-10 222 352)"/>
    </mask>
  </defs>
  <circle cx="256" cy="256" r="246" fill="none" stroke="#b8925a" stroke-width="3.5" opacity="0.42"/>
  <circle cx="256" cy="256" r="232" fill="none" stroke="#8f6a3a" stroke-width="2" opacity="0.38"/>
  <g fill="none" stroke="#9a7848" stroke-width="2.8" stroke-linecap="round" opacity="0.55">
    <path d="M 92 188 l 14 8 M 92 188 l 4 16"/>
    <path d="M 420 188 l -14 8 M 420 188 l -4 16"/>
    <path d="M 92 324 l 14 -8 M 92 324 l 4 -16"/>
    <path d="M 420 324 l -14 -8 M 420 324 l -4 -16"/>
  </g>
  <g transform="translate(256 158)">
    <g fill="url(#sunFill)" stroke="#5c4024" stroke-width="2.4" stroke-linejoin="round">
      <g transform="rotate(0)"><path d="M 0 -90 L 15 -40 L -15 -40 Z"/></g>
      <g transform="rotate(45)"><path d="M 0 -90 L 15 -40 L -15 -40 Z"/></g>
      <g transform="rotate(90)"><path d="M 0 -90 L 15 -40 L -15 -40 Z"/></g>
      <g transform="rotate(135)"><path d="M 0 -90 L 15 -40 L -15 -40 Z"/></g>
      <g transform="rotate(180)"><path d="M 0 -90 L 15 -40 L -15 -40 Z"/></g>
      <g transform="rotate(225)"><path d="M 0 -90 L 15 -40 L -15 -40 Z"/></g>
      <g transform="rotate(270)"><path d="M 0 -90 L 15 -40 L -15 -40 Z"/></g>
      <g transform="rotate(315)"><path d="M 0 -90 L 15 -40 L -15 -40 Z"/></g>
    </g>
    <circle cx="0" cy="0" r="44" fill="url(#sunFill)" stroke="#4a3418" stroke-width="3"/>
    <circle cx="0" cy="0" r="26" fill="none" stroke="#6b4e24" stroke-width="1.8" opacity="0.55"/>
  </g>
  <path
    d="M 168 252 h 176 M 184 268 h 144 M 200 284 h 112"
    fill="none"
    stroke="#a08055"
    stroke-width="2.2"
    stroke-linecap="round"
    opacity="0.4"
  />
  <circle
    cx="268"
    cy="352"
    r="54"
    fill="url(#moonFill)"
    stroke="#4a3c34"
    stroke-width="2.8"
    mask="url(#moonBite)"
  />
  <path
    d="M 248 310 Q 256 298 264 310"
    fill="none"
    stroke="#5c4a40"
    stroke-width="1.8"
    stroke-linecap="round"
    opacity="0.45"
  />
</svg>
